<svg aria-hidden="true" style="position: absolute; width: 0; height: 0; overflow: hidden;" version="1.1" xmlns="http://www.w3.org/2000/svg" xmlns:xlink="http://www.w3.org/1999/xlink">
<defs>
<symbol id="icon-eye-off" viewBox="0 0 32 32">
<path fill="none" stroke="#fafafa" style="stroke: var(--color1, #fafafa)" stroke-linejoin="round" stroke-linecap="round" stroke-miterlimit="4" stroke-width="2.4" d="M23.92 23.92c-2.279 1.737-5.055 2.7-7.92 2.747-9.333 0-14.667-10.667-14.667-10.667 1.659-3.091 3.959-5.791 6.747-7.92M13.2 5.653c0.918-0.215 1.857-0.322 2.8-0.32 9.333 0 14.667 10.667 14.667 10.667-0.809 1.514-1.775 2.94-2.88 4.253M18.827 18.827c-0.366 0.393-0.808 0.708-1.299 0.927s-1.020 0.336-1.557 0.346c-0.537 0.009-1.071-0.089-1.569-0.291s-0.95-0.501-1.33-0.88c-0.38-0.38-0.679-0.832-0.88-1.33s-0.3-1.032-0.29-1.569c0.009-0.537 0.127-1.067 0.346-1.558s0.534-0.932 0.927-1.298"></path>
<path fill="none" stroke="#fafafa" style="stroke: var(--color1, #fafafa)" stroke-linejoin="round" stroke-linecap="round" stroke-miterlimit="4" stroke-width="2.4" d="M1.333 1.333l29.333 29.333"></path>
</symbol>
<symbol id="icon-icon" viewBox="0 0 32 32">
<path fill="#097b45" style="fill: var(--color2, #097b45)" d="M0 16c0-8.838 7.162-16 16-16s16 7.162 16 16c0 8.837-7.163 16-16 16s-16-7.163-16-16zM23.237 13.238c0.681-0.681 0.681-1.794 0-2.475s-1.794-0.681-2.475 0l-6.763 6.762-2.763-2.762c-0.681-0.681-1.794-0.681-2.475 0s-0.681 1.794 0 2.475l4 4c0.681 0.681 1.794 0.681 2.475 0l8-8z"></path>
</symbol>
<symbol id="icon-user" viewBox="0 0 32 32">
<path fill="none" stroke="#0ef387" style="stroke: var(--color3, #0ef387)" stroke-linejoin="round" stroke-linecap="round" stroke-miterlimit="4" stroke-width="2.4471" d="M26.039 27.294v-2.51c0-1.331-0.529-2.608-1.47-3.55s-2.218-1.47-3.549-1.47h-10.039c-1.331 0-2.608 0.529-3.549 1.47s-1.47 2.218-1.47 3.55v2.51"></path>
<path fill="none" stroke="#0ef387" style="stroke: var(--color3, #0ef387)" stroke-linejoin="round" stroke-linecap="round" stroke-miterlimit="4" stroke-width="2.4471" d="M16 14.745c2.772 0 5.020-2.247 5.020-5.020s-2.247-5.020-5.020-5.020c-2.772 0-5.020 2.247-5.020 5.020s2.247 5.020 5.020 5.020z"></path>
</symbol>
<symbol id="icon-Arrow-down" viewBox="0 0 32 32">
<path d="M4.201 29.5c0.13 1.097 1.124 1.881 2.221 1.751l17.876-2.113c1.097-0.13 1.881-1.124 1.751-2.221s-1.124-1.881-2.221-1.751l-15.889 1.878-1.878-15.889c-0.13-1.097-1.124-1.881-2.221-1.751s-1.881 1.124-1.751 2.221l2.113 17.876zM26.125 0.753l-21.508 27.274 3.141 2.477 21.508-27.274-3.141-2.477z"></path>
</symbol>
<symbol id="icon-Arrow-up" viewBox="0 0 32 32">
<path d="M25.905 1.613c-0.149-1.029-1.104-1.742-2.133-1.593l-16.766 2.428c-1.029 0.149-1.742 1.104-1.593 2.133s1.104 1.742 2.133 1.593l14.903-2.159 2.159 14.903c0.149 1.029 1.104 1.742 2.133 1.593s1.742-1.104 1.593-2.133l-2.428-16.766zM5.273 30.154l20.277-27.145-3.016-2.253-20.277 27.145 3.016 2.253z"></path>
</symbol>
<symbol id="icon-error" viewBox="0 0 32 32">
<path fill="#e74a3b" style="fill: var(--color4, #e74a3b)" d="M0 16c0-8.838 7.162-16 16-16s16 7.162 16 16c0 8.837-7.163 16-16 16s-16-7.163-16-16zM10.938 13.006l2.944 2.938-2.944 2.994c-0.581 0.588-0.581 1.538 0 2.069 0.588 0.637 1.537 0.637 2.069 0l2.938-2.888 2.994 2.888c0.588 0.637 1.538 0.637 2.069 0 0.637-0.531 0.637-1.481 0-2.069l-2.888-2.994 2.888-2.938c0.637-0.531 0.637-1.481 0-2.069-0.531-0.581-1.481-0.581-2.069 0l-2.994 2.944-2.938-2.944c-0.531-0.581-1.481-0.581-2.069 0-0.581 0.588-0.581 1.537 0 2.069z"></path>
</symbol>
<symbol id="icon-eye" viewBox="0 0 32 32">
<path fill="none" stroke="#fafafa" style="stroke: var(--color1, #fafafa)" stroke-linejoin="round" stroke-linecap="round" stroke-miterlimit="4" stroke-width="2.4" d="M1.333 16c0 0 5.333-10.667 14.667-10.667s14.667 10.667 14.667 10.667-5.333 10.667-14.667 10.667c-9.333 0-14.667-10.667-14.667-10.667z"></path>
<path fill="none" stroke="#fafafa" style="stroke: var(--color1, #fafafa)" stroke-linejoin="round" stroke-linecap="round" stroke-miterlimit="4" stroke-width="2.4" d="M16 20c2.209 0 4-1.791 4-4s-1.791-4-4-4c-2.209 0-4 1.791-4 4s1.791 4 4 4z"></path>
</symbol>
</defs>
</svg>
